<svg 
 xmlns="http://www.w3.org/2000/svg"
 xmlns:xlink="http://www.w3.org/1999/xlink"
 width="327px" height="785px">
<path fill-rule="evenodd"  fill="rgb(0, 0, 0)"
 d="M15.156,63.281 C21.342,62.749 29.807,62.063 40.527,61.251 C51.247,60.439 63.274,59.627 76.619,58.815 C89.952,58.003 103.888,57.190 118.428,56.378 C132.956,55.566 147.373,54.627 161.666,53.536 C136.407,64.906 115.569,76.149 99.131,87.240 C82.694,98.343 69.584,109.447 59.824,120.537 C50.053,131.641 43.263,143.011 39.455,154.647 C35.636,166.297 33.738,178.339 33.738,190.788 C33.738,218.401 42.068,240.874 58.752,258.196 C75.424,275.530 102.102,289.603 138.796,300.427 C90.667,315.591 55.536,337.519 33.380,366.210 C11.225,394.915 0.147,428.745 0.147,467.728 C0.147,505.632 11.337,536.354 33.738,559.906 C56.127,583.458 94.240,600.919 148.087,612.289 C162.850,615.538 176.552,618.647 189.182,621.629 C201.800,624.598 212.766,628.532 222.057,633.405 C231.348,638.278 238.607,644.496 243.855,652.084 C249.092,659.660 251.717,669.406 251.717,681.321 C251.717,697.019 247.071,710.013 237.780,720.304 C228.489,730.583 215.737,735.735 199.545,735.735 C191.918,735.735 184.291,734.644 176.675,732.486 C169.048,730.316 161.543,727.740 154.162,724.771 C146.770,721.789 139.623,719.213 132.722,717.056 C125.809,714.886 119.254,713.807 113.068,713.807 C103.531,713.807 95.792,716.916 89.840,723.147 C83.877,729.365 80.907,737.892 80.907,748.729 C80.907,756.305 82.448,762.396 85.552,767.002 C88.646,771.596 92.576,775.251 97.345,777.966 C102.102,780.669 107.585,782.433 113.782,783.245 C119.969,784.057 126.167,784.463 132.364,784.463 C146.178,784.463 159.522,782.966 172.387,779.997 C185.251,777.015 197.155,773.093 208.121,768.221 C219.076,763.348 229.081,758.069 238.138,752.384 C247.183,746.699 255.044,741.420 261.722,736.547 C269.338,731.129 276.965,724.631 284.592,717.056 C292.208,709.467 299.120,701.219 305.318,692.285 C311.504,683.352 316.507,673.733 320.326,663.454 C324.134,653.163 326.044,642.339 326.044,630.969 C326.044,614.726 322.225,601.465 314.609,591.174 C306.982,580.895 297.099,572.774 284.949,566.809 C272.800,560.858 259.455,555.985 244.927,552.191 C230.388,548.409 215.982,544.882 201.689,541.633 C175.960,535.136 155.234,528.639 139.511,522.142 C123.788,515.645 111.515,508.475 102.705,500.620 C93.883,492.778 88.054,484.111 85.195,474.631 C82.336,465.165 80.907,454.201 80.907,441.740 C80.907,412.502 86.379,389.902 97.345,373.926 C108.299,357.962 121.164,346.046 135.938,338.191 C150.700,330.349 165.597,325.476 180.605,323.573 C195.614,321.682 207.406,320.730 215.982,320.730 C221.220,320.730 225.742,319.385 229.561,316.670 C233.369,313.967 235.279,307.203 235.279,296.366 C235.279,287.166 233.604,281.621 230.276,279.717 C226.937,277.827 222.169,276.608 215.982,276.063 C194.542,274.984 176.429,271.596 161.666,265.911 C146.892,260.226 134.977,253.056 125.932,244.389 C116.876,235.735 110.321,225.849 106.278,214.746 C102.225,203.655 100.203,192.146 100.203,180.230 C100.203,168.327 101.744,156.817 104.849,145.714 C107.942,134.623 112.945,124.065 119.857,114.040 C126.758,104.028 135.938,94.282 147.373,84.803 C158.808,75.337 172.856,65.997 189.539,56.784 C199.545,57.330 209.304,58.003 218.841,58.815 C228.366,59.627 237.177,60.033 245.284,60.033 C258.149,60.033 268.746,58.142 277.088,54.348 C285.418,50.566 289.595,42.445 289.595,29.984 C289.595,20.238 287.451,13.208 283.163,8.868 C278.875,4.541 273.392,2.371 266.725,2.371 C261.476,2.371 256.005,3.323 250.287,5.213 C244.570,7.117 239.087,9.274 233.849,11.710 C228.601,14.147 223.598,16.583 218.841,19.020 C214.073,21.456 210.265,23.220 207.406,24.299 C195.011,22.674 181.555,20.923 167.026,19.020 C152.487,17.129 137.959,15.238 123.431,13.335 C108.891,11.444 94.955,9.414 81.622,7.244 C68.277,5.086 56.608,2.917 46.602,0.747 L15.156,63.281 Z"/>
</svg>